<?xml version="1.0" encoding="utf-8"?>
<!-- Generator: Adobe Illustrator 22.0.1, SVG Export Plug-In . SVG Version: 6.00 Build 0)  -->
<svg version="1.1" id="Capa_1" xmlns="http://www.w3.org/2000/svg" xmlns:xlink="http://www.w3.org/1999/xlink" x="0px" y="0px"
	 viewBox="0 0 539.5 542.9" style="enable-background:new 0 0 539.5 542.9;" xml:space="preserve">
<style type="text/css">
	.st0{fill:#FFFFFF;}
</style>
<g>
	<path class="st0" d="M475.8,268.1l-87.1-95.8c-7.9-7.8-21.3-7.8-29.6,0.4c-4.1,4.1-6.3,9.4-6.3,15.1s2.2,11,6.2,15l1,1
		c4.5,4.5,4.5,11.9,0,16.5c-4.4,4.5-11.7,4.6-16.2,0.2c0,0,0,0,0,0h0c0,0,0,0,0,0c0,0,0,0,0,0l0,0c0,0,0,0,0,0L319.2,196
		c-8.2-8.2-21.7-8.2-30,0c-8.4,8.4-8.4,21.8-0.1,30.1l24.3,24.3c2.3,2.3,3.4,5.3,3.4,8.2c0,3-1.1,6-3.4,8.2
		c-4.5,4.5-11.9,4.5-16.5,0l-47.6-47.6c-8.2-8.2-21.7-8.2-30,0c-8.4,8.4-8.4,21.8-0.1,30.1l47.5,47.5c2.3,2.3,3.4,5.3,3.4,8.2
		c0,3-1.1,6-3.4,8.2c-4.5,4.5-11.9,4.5-16.5,0L134,196.9c-4.1-4.1-9.6-6.2-15-6.2s-10.8,2.1-15,6.2c-8.4,8.4-8.4,21.9-0.1,30.1
		l174.6,174.6c3.1,3.1,4.2,7.7,2.8,11.8c-1.4,4.2-4.9,7.2-9.3,7.9l-116.7,18.3c-14.2,2-24.7,14.2-24.7,28.3
		c0,6.4,5.2,11.6,11.6,11.6h219.4c28,0,54.3-10.9,74.1-30.7l36.6-36.6c19.8-19.8,30.6-46,30.6-73.9
		C503,312.4,493.3,287.4,475.8,268.1z"/>
	<path class="st0" d="M488.8,428.8l-36.6,36.6c-24.2,24.2-56.3,37.5-90.5,37.5H142.3c-19.2,0-34.9-15.7-34.9-34.9
		c0-25.7,19.2-47.7,44.5-51.4l94-14.8L87.4,243.5c-17.3-17.3-17.3-45.5,0-62.9c17.5-17.5,45.7-17.5,63-0.1l41.2,41.2
		c2-6.9,5.7-13.4,11.2-18.8c16-16,41.1-17.3,58.5-4c2-7.1,5.8-13.7,11.3-19.2c16-16,41.1-17.4,58.6-4c2-7.1,5.7-13.7,11.3-19.2
		c17.5-17.5,45.7-17.5,63-0.1l87.5,96.2c21.5,23.6,33.3,54.2,33.3,86c0,15-2.6,29.6-7.5,43.3c14.7-33.2,22.8-70,22.8-108.7
		c0-148.8-120.7-269.5-269.5-269.5S2.6,124.2,2.6,273.1s120.7,269.5,269.5,269.5c98.2,0,184.1-52.5,231.3-131.1
		C499.1,417.7,494.2,423.5,488.8,428.8z M91.4,301.6c-2,4.3-6.2,6.8-10.6,6.8c-1.6,0-3.2-0.3-4.8-1c-37.5-17-61.7-54.4-61.7-95.3
		c0-57.7,47-104.7,104.7-104.7c41,0,78.4,24.3,95.3,61.7c2.7,5.9,0,12.8-5.8,15.4c-5.8,2.7-12.8,0-15.4-5.8
		c-13.2-29.2-42.3-48.1-74.1-48.1c-44.9,0-81.5,36.5-81.5,81.5c0,31.8,18.9,60.9,48.1,74.1C91.4,288.8,94,295.7,91.4,301.6z"/>
	<path class="st0" d="M518.8,381.7c-4.5,10.3-9.7,20.2-15.4,29.8C509.8,402.3,515,392.3,518.8,381.7z"/>
</g>
</svg>
