<?xml version="1.0" encoding="utf-8"?>
<!-- Generator: Adobe Illustrator 22.0.1, SVG Export Plug-In . SVG Version: 6.00 Build 0)  -->
<svg version="1.1" id="Capa_1" xmlns="http://www.w3.org/2000/svg" xmlns:xlink="http://www.w3.org/1999/xlink" x="0px" y="0px"
	 viewBox="0 0 528 529" style="enable-background:new 0 0 528 529;" xml:space="preserve">
<style type="text/css">
	.st0{fill:#FFFFFF;}
</style>
<g>
	<path class="st0" d="M530,263.7c0,82-52.2,155-129.9,181.5c-1.1,0.4-2.1,0.5-3.2,0.5c-4.1,0-7.9-2.6-9.3-6.7
		c-1.8-5.2,1-10.7,6.1-12.5c69.7-23.8,116.6-89.3,116.6-162.9c0-73.7-47-139.2-116.8-162.9c-5.1-1.8-7.9-7.4-6.2-12.5
		c1.8-5.1,7.3-7.9,12.5-6.2c76.4,26,128.2,96.7,130.1,177C527,115.2,409.5-0.5,265-0.5C153.6-0.5,58.3,68.2,19.1,165.6
		c1.6-3.2,4.9-5.4,8.8-5.4h104.7L265.8,47.4c0.4-0.3,0.8-0.6,1.3-0.9c9.4-5.7,20.8-5.9,30.4-0.4c9.8,5.6,15.7,15.7,15.7,27.1v390.6
		c0,11.4-5.9,21.6-15.7,27.1c-4.7,2.6-9.8,3.9-14.8,4c-5.4,0-10.7-1.5-15.6-4.4c-0.6-0.3-1.1-0.7-1.6-1.2L132.3,366.9l-104.4,0
		c-2.6,0-5.1-1-7-2.9s-2.9-4.3-2.9-7v-187c0-1,0.2-2,0.4-2.9C6.5,197.3,0,230.1,0,264.5c0,146.4,118.6,265,265,265
		s265-118.6,265-265C530,264.2,530,263.9,530,263.7z M342.8,391.5c-4.3,0-8.2-2.8-9.5-7.1c-1.5-5.2,1.5-10.7,6.7-12.2
		c48.1-13.9,81.7-58.6,81.7-108.6c0-50.1-33.6-94.7-81.7-108.6c-5.2-1.5-8.2-7-6.7-12.2c1.5-5.2,6.9-8.2,12.2-6.7
		c56.5,16.3,95.9,68.8,95.9,127.6S402,374.8,345.5,391.1C344.6,391.4,343.7,391.5,342.8,391.5z"/>
	<path class="st0" d="M126.3,307.9c0-5.4,4.4-9.8,9.8-9.8s9.8,4.4,9.8,9.8v44.8L278,474c4.4,2.3,8.3,0.6,9.8-0.3
		c3.6-2,5.7-5.7,5.7-10V73.2c0-4.2-2.1-8-5.7-10c-1.5-0.9-5.5-2.6-10-0.2L145.9,174.7v44.6c0,5.4-4.4,9.8-9.8,9.8s-9.8-4.4-9.8-9.8
		v-39.4H37.7v167.3l88.6,0V307.9z"/>
	<path class="st0" d="M18.4,167.2c0.2-0.5,0.4-1.1,0.7-1.6C18.8,166.1,18.6,166.7,18.4,167.2z"/>
	<path class="st0" d="M530,263.6c0-1.5,0-3-0.1-4.6C530,260.6,530,262.1,530,263.6C530,263.6,530,263.6,530,263.6z"/>
</g>
</svg>
