<?xml version="1.0" encoding="utf-8"?>
<!-- Generator: Adobe Illustrator 22.0.1, SVG Export Plug-In . SVG Version: 6.00 Build 0)  -->
<svg version="1.1" id="Capa_1" xmlns="http://www.w3.org/2000/svg" xmlns:xlink="http://www.w3.org/1999/xlink" x="0px" y="0px"
	 viewBox="0 0 551.3 548.2" style="enable-background:new 0 0 551.3 548.2;" xml:space="preserve">
<style type="text/css">
	.st0{fill:#FFFFFF;}
</style>
<g>
	<path class="st0" d="M494.5,233.1c-7-28.1-15.9-52.9-26.8-72.1c-35.1-63.1-75.9-52.3-124.4-40.2c-19.8,5.1-40.2,10.2-63.1,12.1
		c-0.6,0-0.6,0-1.3,0h-7c-0.6,0-0.6,0-1.3,0c-22.3-1.9-42.7-7-62.5-12.1c-48.5-12.8-89.3-23-124.4,40.2C73,180.2,64,205.7,57,233.1
		c-7.7,29.3-12.1,60.6-13.4,88c-1.3,29.3,1.3,49.1,6.4,61.2c3.8,8.9,8.9,14,15.3,15.9c7,2.6,15.9,0.6,26.1-3.2
		c21.7-8.3,47.8-28.7,74-52.9c24.9-23,67.6-35.1,110.3-35.1c42.7,0,85.5,12.1,109.7,36.3c25.5,24.2,51.7,44,74,52.9
		c10.2,3.8,19.1,5.1,26.1,3.2c6.4-1.9,11.5-7,15.3-15.9c5.7-13.4,8.3-33.2,7-62.5C506.6,293,501.5,262.4,494.5,233.1z M217.1,247.8
		c-5.7,6.4-14,10.2-23,10.8c-0.6,8.9-5.1,16.6-10.8,23c-6.4,6.4-15.9,10.8-26.1,10.8s-19.1-3.8-26.1-10.8c-6.4-5.7-10.2-14-10.8-23
		c-9.6-0.6-17.2-4.5-23.6-10.8c-6.4-6.4-10.8-15.9-10.8-26.1s3.8-19.1,10.8-26.1l0.6-0.6c6.4-5.7,14-9.6,23-10.2
		c0.6-8.9,5.1-17.2,10.8-23c6.4-6.4,15.9-10.8,26.1-10.8s19.1,3.8,26.1,10.8l0.6,0.6c5.7,5.7,9.6,14,10.2,22.3
		c8.9,0.6,16.6,5.1,23,10.8c6.4,6.4,10.8,15.9,10.8,26.1S224.1,240.7,217.1,247.8z M341.4,243.9c-12.3,0-22.3-10-22.3-22.3
		c0-12.3,10-22.3,22.3-22.3c12.3,0,22.3,10,22.3,22.3C363.8,233.9,353.8,243.9,341.4,243.9z M386.7,289.2c-12.3,0-22.3-10-22.3-22.3
		c0-12.3,10-22.3,22.3-22.3c12.3,0,22.3,10,22.3,22.3C409,279.2,399.1,289.2,386.7,289.2z M386.7,198.7c-12.3,0-22.3-10-22.3-22.3
		s10-22.3,22.3-22.3c12.3,0,22.3,10,22.3,22.3S399.1,198.7,386.7,198.7z M432,243.9c-12.3,0-22.3-10-22.3-22.3
		c0-12.3,10-22.3,22.3-22.3c12.3,0,22.3,10,22.3,22.3C454.3,233.9,444.3,243.9,432,243.9z"/>
	<path class="st0" d="M191.6,208.2h-8.9c-7,0-12.1-5.7-12.1-12.1v-8.9c0-3.2-1.3-6.4-3.2-8.9c-0.6-0.6-0.6-0.6-0.6-0.6
		c-2.6-2.6-5.7-3.8-9.6-3.8c-3.8,0-7,1.3-9.6,3.8c-2.6,2.6-3.8,5.7-3.8,9.6v8.9c0,7-5.7,12.1-12.1,12.1h-8.9c-3.2,0-6.4,1.3-8.9,3.2
		c-0.6,0.6-0.6,0.6-0.6,0.6c-2.6,2.6-3.8,5.7-3.8,9.6s1.9,7,3.8,8.9c2.6,2.6,5.7,3.8,9.6,3.8h8.9c7,0,12.1,5.7,12.1,12.1v8.9
		c0,3.8,1.3,7,3.8,9.6c2.6,2.6,5.7,3.8,9.6,3.8c3.8,0,7-1.3,9.6-3.8c2.6-2.6,3.8-5.7,3.8-9.6v-8.3c0-7,5.7-12.1,12.1-12.1h8.9
		c3.8,0,7-1.3,9.6-3.8c2.6-2.6,3.8-5.7,3.8-9.6c0-3.8-1.3-7-3.8-9.6C198.6,209.5,195.4,208.2,191.6,208.2z"/>
	<path class="st0" d="M275.7,1.9C124.6,1.9,2,124.5,2,275.7s122.6,273.7,273.7,273.7s273.7-122.6,273.7-273.7S426.9,1.9,275.7,1.9z
		 M492,421.9c-12.1,3.2-26.1,1.3-40.8-4.5c-24.9-10.2-53.6-31.9-81.6-58c-19.8-19.1-56.8-28.7-93.7-28.7s-74,9.6-93.7,28.7
		c-28.1,26.1-56.8,47.8-81.6,58c-14.7,6.4-28.7,7.7-40.8,4.5C46.2,418,36,408.5,29,393.2c-7-16.6-10.2-40.2-8.9-72.7
		c1.3-29.3,6.4-61.9,14-92.5c7-29.3,17.2-56.8,28.7-77.8c44.6-79.1,93.1-66.3,151.1-51.7c18.5,4.5,38.3,9.6,58.7,11.5h6.4
		c20.4-1.9,40.2-7,58.7-11.5c58-15.3,106.5-27.4,151.1,51c11.5,21,21,48.5,28.7,77.8c7.7,30.6,12.8,63.1,14,92.5
		c1.3,33.2-1.9,56.8-8.9,72.7C515.5,409.1,504.7,418,492,421.9z"/>
</g>
</svg>
