<?xml version="1.0" encoding="utf-8"?>
<!-- Generator: Adobe Illustrator 22.0.1, SVG Export Plug-In . SVG Version: 6.00 Build 0)  -->
<svg version="1.1" id="Capa_1" xmlns="http://www.w3.org/2000/svg" xmlns:xlink="http://www.w3.org/1999/xlink" x="0px" y="0px"
	 viewBox="0 0 514 512" style="enable-background:new 0 0 514 512;" xml:space="preserve">
<style type="text/css">
	.st0{fill:#FFFFFF;}
</style>
<g>
	<path class="st0" d="M258,94.8c-78.4,0-142.2,63.8-142.2,142.2c0,61.5,39.3,115.8,97.8,135c3.9,1.3,6.5,4.9,6.5,9v17.1h75.9v-17.1
		c0-4.1,2.6-7.7,6.5-9c58.5-19.2,97.8-73.5,97.8-135C400.2,158.6,336.4,94.8,258,94.8z M258,142.2c-52.3,0-94.8,42.5-94.8,94.8
		c0,5.2-4.2,9.5-9.5,9.5c-5.2,0-9.5-4.2-9.5-9.5c0-62.7,51-113.8,113.8-113.8c5.2,0,9.5,4.2,9.5,9.5
		C267.5,138,263.2,142.2,258,142.2z"/>
	<path class="st0" d="M220.1,464.6h9.5c5.2,0,9.5,4.2,9.5,9.5v19H277v-19c0-5.2,4.2-9.5,9.5-9.5h9.5v-47.4h-75.9V464.6z"/>
	<path class="st0" d="M258.2,0c5.1,0.1,9.2,4.3,9.2,9.5v37.9c0,5.2-4.2,9.5-9.5,9.5c-5.2,0-9.5-4.2-9.5-9.5V9.5
		c0-5.2,4.2-9.4,9.3-9.5c-0.2,0-0.4,0-0.6,0C115.2,0,0.1,115.1,0.1,257.1s115.1,257.1,257.1,257.1s257.1-115.1,257.1-257.1
		C514.4,115.5,399.8,0.5,258.2,0z M68.4,246.5H30.4c-5.2,0-9.5-4.2-9.5-9.5c0-5.2,4.2-9.5,9.5-9.5h37.9c5.2,0,9.5,4.2,9.5,9.5
		C77.8,242.3,73.6,246.5,68.4,246.5z M90.4,69.4c3.7-3.7,9.7-3.7,13.4,0l26.8,26.8c3.7,3.7,3.7,9.7,0,13.4c-1.8,1.8-4.3,2.8-6.7,2.8
		s-4.9-0.9-6.7-2.8L90.4,82.8C86.7,79.1,86.7,73.1,90.4,69.4z M130.6,377.8l-26.8,26.8c-1.8,1.8-4.3,2.8-6.7,2.8s-4.9-0.9-6.7-2.8
		c-3.7-3.7-3.7-9.7,0-13.4l26.8-26.8c3.7-3.7,9.7-3.7,13.4,0S134.3,374.1,130.6,377.8z M314.9,387.8v86.3c0,5.2-4.2,9.5-9.5,9.5
		h-9.5v19c0,5.2-4.2,9.5-9.5,9.5h-56.9c-5.2,0-9.5-4.2-9.5-9.5v-19h-9.5c-5.2,0-9.5-4.2-9.5-9.5v-86.3
		C138.4,364.2,96.8,304.5,96.8,237c0-88.9,72.3-161.2,161.2-161.2S419.2,148.2,419.2,237C419.2,304.5,377.5,364.2,314.9,387.8z
		 M425.6,404.7c-1.8,1.8-4.3,2.8-6.7,2.8c-2.4,0-4.9-0.9-6.7-2.8l-26.8-26.8c-3.7-3.7-3.7-9.7,0-13.4c3.7-3.7,9.7-3.7,13.4,0
		l26.8,26.8C429.3,395,429.3,400.9,425.6,404.7z M425.6,82.8l-26.8,26.8c-1.8,1.8-4.3,2.8-6.7,2.8s-4.9-0.9-6.7-2.8
		c-3.7-3.7-3.7-9.7,0-13.4l26.8-26.8c3.7-3.7,9.7-3.7,13.4,0S429.3,79.1,425.6,82.8z M485.5,246.5h-37.9c-5.2,0-9.5-4.2-9.5-9.5
		c0-5.2,4.2-9.5,9.5-9.5h37.9c5.2,0,9.5,4.2,9.5,9.5C495,242.3,490.8,246.5,485.5,246.5z"/>
	<path class="st0" d="M258,0c-0.1,0-0.1,0-0.1,0c0.1,0,0.3,0,0.4,0C258.2,0,258.1,0,258,0z"/>
</g>
</svg>
