<?xml version="1.0" encoding="utf-8"?>
<!-- Generator: Adobe Illustrator 22.0.1, SVG Export Plug-In . SVG Version: 6.00 Build 0)  -->
<svg version="1.1" id="Capa_1" xmlns="http://www.w3.org/2000/svg" xmlns:xlink="http://www.w3.org/1999/xlink" x="0px" y="0px"
	 viewBox="0 0 655.7 657" style="enable-background:new 0 0 655.7 657;" xml:space="preserve">
<style type="text/css">
	.st0{fill:#FFFFFF;}
</style>
<g>
	<polygon class="st0" points="538.1,152.3 538.1,106.9 268.1,141.8 268.1,189.7 268.1,218.3 538.1,183.3 	"/>
	<path class="st0" d="M175,431.4c30.5,0,57.5,13.3,74.5,33.7V228.9v-39.2v-56c0-4.7,3.5-8.6,8.1-9.2l288.6-37.3
		c1.3-0.2,2.5,0,3.7,0.3C491.5,33.9,413.7,1.3,328.3,1.3C147,1.3,0,148.3,0,329.7c0,94.9,40.3,180.5,104.7,240.4
		c-14.2-14.7-22.8-33.9-22.8-54.8C81.9,469,123.7,431.4,175,431.4z"/>
	<ellipse class="st0" cx="463.6" cy="422.1" rx="74.5" ry="65.2"/>
	<ellipse class="st0" cx="175" cy="515.2" rx="74.5" ry="65.2"/>
	<path class="st0" d="M556.2,93.2c0.3,1,0.5,2,0.5,3.1v56v39.2V423c0,0.1-0.1,0.2-0.1,0.3c-0.7,45.6-42.2,82.5-93,82.5
		c-51.3,0-93.1-37.6-93.1-83.8s41.8-83.8,93.1-83.8c30.5,0,57.5,13.3,74.5,33.7v-170l-270,34.9v270c0,0.6-0.2,1.2-0.4,1.8
		c0.2,2.1,0.4,4.2,0.4,6.4c0,46.2-41.8,83.8-93.1,83.8c-23.1,0-44.3-7.6-60.6-20.3c57.5,49.4,132.2,79.3,213.9,79.3
		c181.3,0,328.4-147,328.4-328.4C656.7,236.8,618.1,153,556.2,93.2z"/>
	<path class="st0" d="M553.5,89.3c-1.1-0.9-2.3-1.6-3.6-1.9c2.1,1.9,4.2,3.9,6.2,5.9C555.6,91.7,554.7,90.4,553.5,89.3z"/>
	<path class="st0" d="M114.4,578.7c-3.3-2.8-6.5-5.7-9.7-8.7C107.7,573.2,110.9,576.1,114.4,578.7z"/>
</g>
</svg>
