<?xml version="1.0" encoding="utf-8"?>
<!-- Generator: Adobe Illustrator 22.0.1, SVG Export Plug-In . SVG Version: 6.00 Build 0)  -->
<svg version="1.1" id="Layer_1" xmlns="http://www.w3.org/2000/svg" xmlns:xlink="http://www.w3.org/1999/xlink" x="0px" y="0px"
	 viewBox="0 0 500 500" style="enable-background:new 0 0 500 500;" xml:space="preserve">
<style type="text/css">
	.st0{fill:#565656;}
	.st1{fill:#FFFFFF;}
</style>
<g>
	<circle class="st0" cx="250" cy="250" r="250"/>
</g>
<g>
	<circle class="st0" cx="250" cy="250" r="250"/>
</g>
<g>
	<circle class="st0" cx="250" cy="250" r="250"/>
</g>
<g>
	<circle class="st0" cx="250" cy="250" r="250"/>
</g>
<g>
	<circle class="st0" cx="250" cy="250" r="250"/>
</g>
<g>
	<path class="st1" d="M15,337.3h469V167.9H15V337.3z M131.4,308.5h-8.1v-13.8h8.1V308.5z M160.2,308.5h-8.1v-13.8h8.1V308.5z
		 M204,313.1h-9.2v-24.2h9.2V313.1z M239.7,313.1h-9.2v-24.2h9.2V313.1z M272,313.1h-9.2v-24.2h9.2V313.1z M325.6,315.4
		c-8,0-14.4-6.4-14.4-14.4c0-8,6.4-14.4,14.4-14.4c8,0,14.4,6.4,14.4,14.4C340,308.9,333.5,315.4,325.6,315.4z M432.1,308.5h-8.1
		v-13.8h8.1V308.5z M428.1,197.8c15,0,27.1,12.1,27.1,27.1S443.1,252,428.1,252c-15,0-27.1-12.1-27.1-27.1S413.2,197.8,428.1,197.8z
		 M387.2,308.5h-8.1v-13.8h8.1V308.5z M115.3,196.7h268.5v56.5H115.3V196.7z M92.2,294.6h8.1v13.8h-8.1V294.6z M73.2,294.6
		c3.5,0,6.3,2.8,6.3,6.3c0,3.5-2.8,6.3-6.3,6.3c-3.5,0-6.3-2.8-6.3-6.3C66.9,297.5,69.7,294.6,73.2,294.6z M47.3,294.6h8.1v13.8
		h-8.1V294.6z"/>
	<polygon class="st1" points="440.2,162.1 484,162.1 440.2,128.7 57.6,128.7 15,162.1 57.6,162.1 	"/>
	<path class="st1" d="M49.6,347.4c0,0,0,0.1,0,0.1c0,0,0,0,0,0.1c0,0.1,0,0.1,0,0.2c0,0.1,0,0.2,0.1,0.3c0,0.1,0,0.1,0.1,0.2
		c0.3,0.7,0.9,1.3,1.6,1.5c3.5,2.1,12,3.6,21.9,3.6s18.3-1.5,21.9-3.6c0.8-0.2,1.4-0.8,1.6-1.5c0-0.1,0-0.1,0.1-0.2
		c0-0.1,0-0.2,0.1-0.3c0-0.1,0-0.1,0-0.2c0,0,0,0,0-0.1c0,0,0-0.1,0-0.1v-5.6H49.6V347.4z"/>
	<path class="st1" d="M404.5,347.4c0,0,0,0.1,0,0.1c0,0,0,0,0,0.1c0,0.1,0,0.1,0,0.2c0,0.1,0,0.2,0.1,0.3c0,0.1,0,0.1,0.1,0.2
		c0.3,0.7,0.9,1.3,1.6,1.5c3.5,2.1,12,3.6,21.9,3.6s18.3-1.5,21.9-3.6c0.8-0.2,1.4-0.8,1.6-1.5c0-0.1,0-0.1,0.1-0.2
		c0-0.1,0-0.2,0.1-0.3c0-0.1,0-0.1,0-0.2c0,0,0,0,0-0.1c0,0,0-0.1,0-0.1v-5.6h-47.2V347.4z"/>
</g>
</svg>
