<?xml version="1.0" encoding="utf-8"?>
<!-- Generator: Adobe Illustrator 22.0.1, SVG Export Plug-In . SVG Version: 6.00 Build 0)  -->
<svg version="1.1" id="Layer_1" xmlns="http://www.w3.org/2000/svg" xmlns:xlink="http://www.w3.org/1999/xlink" x="0px" y="0px"
	 viewBox="0 0 500 500" style="enable-background:new 0 0 500 500;" xml:space="preserve">
<style type="text/css">
	.st0{fill:#565656;}
	.st1{fill:#FFFFFF;}
	.st2{fill:none;stroke:#FFFFFF;stroke-width:9;stroke-miterlimit:10;}
</style>
<g>
	<circle class="st0" cx="250" cy="250" r="250"/>
</g>
<g>
	<circle class="st0" cx="250" cy="250" r="250"/>
</g>
<g>
	<circle class="st0" cx="250" cy="250" r="250"/>
</g>
<g>
	<circle class="st0" cx="250" cy="250" r="250"/>
</g>
<g>
	<circle class="st0" cx="250" cy="250" r="250"/>
</g>
<g>
	<circle class="st0" cx="250" cy="249" r="250"/>
</g>
<g>
	<g>
		<path class="st1" d="M200.5,174.5H36.3C18.5,174.5,4,189.1,4,206.8v80.8c0,17.8,14.5,32.3,32.3,32.3h164.2
			c17.8,0,32.3-14.5,32.3-32.3v-80.8C232.8,189.1,218.3,174.5,200.5,174.5z M192.4,185.3c3,0,5.4,2.4,5.4,5.4c0,3-2.4,5.4-5.4,5.4
			c-3,0-5.4-2.4-5.4-5.4C187,187.7,189.5,185.3,192.4,185.3z M118.4,179.9c6.7,0,12.1,5.4,12.1,12.1c0,6.7-5.4,12.1-12.1,12.1
			s-12.1-5.4-12.1-12.1C106.3,185.3,111.7,179.9,118.4,179.9z M44.4,185.3c3,0,5.4,2.4,5.4,5.4c0,3-2.4,5.4-5.4,5.4
			s-5.4-2.4-5.4-5.4C39,187.7,41.4,185.3,44.4,185.3z M44.4,306.4c-3,0-5.4-2.4-5.4-5.4c0-3,2.4-5.4,5.4-5.4s5.4,2.4,5.4,5.4
			C49.8,304,47.4,306.4,44.4,306.4z M118.4,311.8c-6.7,0-12.1-5.4-12.1-12.1c0-6.7,5.4-12.1,12.1-12.1s12.1,5.4,12.1,12.1
			C130.5,306.4,125.1,311.8,118.4,311.8z M192.4,306.4c-3,0-5.4-2.4-5.4-5.4c0-3,2.4-5.4,5.4-5.4c3,0,5.4,2.4,5.4,5.4
			C197.8,304,195.4,306.4,192.4,306.4z M230.1,263.4h-18.4v13.5H25.1v-13.5H6.7v-32.3h18.4v-13.5h186.6v13.5h18.4V263.4z"/>
		<circle class="st1" cx="79.4" cy="247.2" r="8.1"/>
		<circle class="st1" cx="160.1" cy="247.2" r="8.1"/>
	</g>
	<path class="st2" d="M209.9,181.3c79.2-51.1,171.6-12.6,280.1-14.8"/>
	<path class="st2" d="M212.6,313.2c57,33.7,269-34.7,274.4,31"/>
</g>
</svg>
