<?xml version="1.0"?>
<svg xmlns="http://www.w3.org/2000/svg" xmlns:xlink="http://www.w3.org/1999/xlink" class="" id="Layer_1" style="enable-background:new 0 0 512 512;" viewBox="0 0 512 512" x="0px" y="0px" width="512px" height="512px" version="1.1" xml:space="preserve"><g><g>
	<g>
		<path class="active-path" d="M 505.403 406.394 L 295.389 58.102 c -8.274 -13.721 -23.367 -22.245 -39.39 -22.245 c -16.023 0 -31.116 8.524 -39.391 22.246 L 6.595 406.394 c -8.551 14.182 -8.804 31.95 -0.661 46.37 c 8.145 14.42 23.491 23.378 40.051 23.378 h 420.028 c 16.56 0 31.907 -8.958 40.052 -23.379 C 514.208 438.342 513.955 420.574 505.403 406.394 Z M 477.039 436.372 c -2.242 3.969 -6.467 6.436 -11.026 6.436 H 45.985 c -4.559 0 -8.784 -2.466 -11.025 -6.435 c -2.242 -3.97 -2.172 -8.862 0.181 -12.765 L 245.156 75.316 c 2.278 -3.777 6.433 -6.124 10.844 -6.124 c 4.41 0 8.565 2.347 10.843 6.124 l 210.013 348.292 C 479.211 427.512 479.281 432.403 477.039 436.372 Z" data-original="#000000" data-old_color="#F9F9F9" fill="#FBFBFB"/>
	</g>
</g><g>
	<g>
		<path class="active-path" d="M 256.154 173.005 c -12.68 0 -22.576 6.804 -22.576 18.866 c 0 36.802 4.329 89.686 4.329 126.489 c 0.001 9.587 8.352 13.607 18.248 13.607 c 7.422 0 17.937 -4.02 17.937 -13.607 c 0 -36.802 4.329 -89.686 4.329 -126.489 C 278.421 179.81 268.216 173.005 256.154 173.005 Z" data-original="#000000" data-old_color="#F9F9F9" fill="#FBFBFB"/>
	</g>
</g><g>
	<g>
		<path class="active-path" d="M 256.465 353.306 c -13.607 0 -23.814 10.824 -23.814 23.814 c 0 12.68 10.206 23.814 23.814 23.814 c 12.68 0 23.505 -11.134 23.505 -23.814 C 279.97 364.13 269.144 353.306 256.465 353.306 Z" data-original="#000000" data-old_color="#F9F9F9" fill="#FBFBFB"/>
	</g>
</g></g> </svg>
