<?xml version="1.0" encoding="utf-8"?>
<!-- Generator: Adobe Illustrator 22.0.1, SVG Export Plug-In . SVG Version: 6.00 Build 0)  -->
<svg version="1.1" id="Layer_1" xmlns="http://www.w3.org/2000/svg" xmlns:xlink="http://www.w3.org/1999/xlink" x="0px" y="0px"
	 viewBox="0 0 500 500" style="enable-background:new 0 0 500 500;" xml:space="preserve">
<style type="text/css">
	.st0{fill:#565656;}
	.st1{fill:#FFFFFF;}
</style>
<g>
	<circle class="st0" cx="250" cy="250" r="250"/>
</g>
<g>
	<circle class="st0" cx="250" cy="250" r="250"/>
</g>
<g>
	<circle class="st0" cx="250" cy="250" r="250"/>
</g>
<g>
	<path class="st1" d="M465.3,125.2c0,10.2,0,19.9,0,29.7c0,1.9-0.3,3.8-0.4,5.8c-0.4,33.6-0.7,67.2-1,100.8
		c-0.3,32.6-0.6,65.3-1,97.9c-0.1,6.1,0.3,12.6-7.1,15.4c-1.8,0.7-3.9,1.6-5.7,1.4c-6.5-0.6-13-1.8-19.5-2.5
		c-3.5-0.4-4.1-1.6-3.9-5.3c0.6-9.9,0.4-19.9,0.4-29.9c0.1-22.5,0-45,0.1-67.6c0.2-33.6,0.6-67.2,0.9-100.8c0.1-7.2,0-7.3-7-5.4
		c-11.5,3-22.9,6.3-34.4,9.2c-9.5,2.4-19,4.5-28.6,6.5c-4.7,0.9-6.2,3.2-6.1,7.9c0.1,62.4,0.1,124.8-0.1,187.2
		c0,17.2-0.4,34.4-0.8,51.6c0,1.7-1.5,3.7-2.8,5.1c-6.8,7.4-15.4,6.1-24,4.6c-3.6-0.6-7.2-1.7-10.8-2.1c-4.2-0.5-5.1-2.9-5.1-6.6
		c0.1-9,0-18,0-27c0.3-62.7,0.6-125.4,1-188.1c0-8,0.4-16.1,0.8-24.1c0.2-3.9-1.5-5.3-5.4-5.5c-25-1.6-49.9-3.3-74.9-5.2
		c-4.8-0.4-4.4,2.2-4.4,5.2c0,50.7,0,101.3,0,152c0,9.3-1.3,11.7-10.8,12.3c-7.7,0.5-15.6-1-23.3-2c-0.9-0.1-2-2.7-2-4.1
		c0.3-44.2,0.7-88.4,1.1-132.6c0.1-8.8,0-17.7,0-26.5c0-6-0.8-7-6.9-7.4c-8.7-0.5-17.3-0.6-26-1.2c-14.5-1-29.1-2.3-43.6-3.4
		c-7.4-0.6-14.7-1.2-22.1-1.3c-1.1,0-2.4,2-3.4,3.2c-0.4,0.5-0.1,1.6-0.1,2.4c-0.3,70.9-0.7,141.8-1,212.7c0,8.6-2,10.8-10.4,13
		c-9.6,2.5-18.7-1.2-28-2.2c-1.2-0.1-2.9-3.3-3-5.1c-0.2-5.1,0.6-10.3,0.6-15.4C47,309,47,240.5,47,172c0-10.4-0.5-20.8-1-31.2
		c-0.2-4.2,1-6.3,5.7-6.9c14.8-1.6,29.6-3.7,44.4-5.8c9.3-1.4,18.6-3.5,27.9-4.8c14.4-2.1,28.9-3.6,43.3-5.7
		c9.4-1.3,18.6-3.5,28-4.7c6.5-0.8,13.1-1.1,19.7-0.8c13.4,0.6,26.8,1.8,40.3,2.5c20.4,1.1,40.7,2,61.1,3.1
		c19.3,1.1,38.7,2.4,58,3.5c9.8,0.6,19.6,0.9,29.4,1.2c19.1,0.7,38.2,1.4,57.3,2.1C462.7,124.7,464.2,125,465.3,125.2z"/>
</g>
</svg>
