<?xml version="1.0" encoding="utf-8"?>
<!-- Generator: Adobe Illustrator 22.0.1, SVG Export Plug-In . SVG Version: 6.00 Build 0)  -->
<svg version="1.1" id="Layer_1" xmlns="http://www.w3.org/2000/svg" xmlns:xlink="http://www.w3.org/1999/xlink" x="0px" y="0px"
	 viewBox="0 0 778.9 512" style="enable-background:new 0 0 778.9 512;" xml:space="preserve">
<style type="text/css">
	.st0{fill:#FFFFFF;}
	.st1{fill:#E6E7E8;}
</style>
<g>
	<g>
		<path class="st0" d="M689.1,216.2c-1.4-1.5-2.7-3-3.9-4.6c-0.3,3.2-2.7,5.1-5.5,5.5c0.3,0.5,0.7,1.1,1,1.6l-58.7,58.7
			c-8.5-5.6-18.7-8.8-29.6-8.8c-30,0-54.4,24.4-54.4,54.4s24.4,54.4,54.4,54.4c30,0,54.4-24.4,54.4-54.4c0-10.9-3.3-21.1-8.8-29.6
			l58.4-58.4c0.2-1.8,0.8-3.5,1.7-5.1c0.8-1.3,1.8-2.4,2.8-3.5C696.7,223.1,692.7,219.9,689.1,216.2z M592.3,354.8
			c-17.6,0-31.9-14.3-31.9-31.9c0-17.6,14.3-31.9,31.9-31.9c17.6,0,31.9,14.3,31.9,31.9C624.2,340.5,609.9,354.8,592.3,354.8z"/>
	</g>
</g>
<path class="st0" d="M639.3,293.8c-16-26.3-50.5-34.7-76.8-18.6c-8.2,5-14.7,11.8-19.2,19.6l-125.8-30.5
	c1.8-15.9-1.4-32.4-10.3-47.1c-8.9-14.7-22.2-25.1-37.1-30.8l23.8-98.1c6.4-0.1,12.9-1.7,18.8-5.3c17.5-10.7,23.1-33.6,12.4-51.2
	c-10.7-17.5-33.6-23.1-51.2-12.4s-23.1,33.6-12.4,51.2c3.6,5.9,8.6,10.3,14.3,13.3L352,182.1c-15.9-1.8-32.4,1.4-47.1,10.3
	c-14.7,8.9-25.1,22.2-30.7,37.1l-162-39.3c2.5-13.2,0.4-27.2-7.1-39.6c-16-26.3-50.5-34.7-76.8-18.6s-34.7,50.5-18.6,76.8
	s50.5,34.7,76.8,18.6c8.2-5,14.7-11.8,19.2-19.6l164.1,39.8c-1.5,13,0.4,26.4,6,38.8L195,335.7c-17.5-20.2-47.6-25.5-71.2-11.1
	c-26.3,16-34.7,50.5-18.6,76.8s50.5,34.7,76.8,18.6c23.6-14.4,32.7-43.5,22.8-68.4l80.8-49.2c8.5,10.7,19.6,18.5,31.8,23.1
	l-23.8,98.1c-6.4,0.1-12.9,1.7-18.8,5.3c-17.5,10.7-23.1,33.6-12.4,51.2c10.7,17.5,33.6,23.1,51.2,12.4
	c17.5-10.7,23.1-33.6,12.4-51.2c-3.6-5.9-8.6-10.3-14.3-13.3l23.8-98.1c15.9,1.8,32.4-1.4,47.1-10.3c14.7-8.9,25.1-22.2,30.7-37.1
	l123.7,30c-2.5,13.2-0.4,27.2,7.1,39.5c16,26.3,50.5,34.7,76.8,18.6S655.3,320.2,639.3,293.8z M383.6,35.4
	c8.8-5.3,20.2-2.6,25.6,6.2c5.3,8.8,2.6,20.2-6.2,25.6s-20.2,2.6-25.6-6.2S374.8,40.7,383.6,35.4z M25.5,199.1
	c-10.7-17.5-5.1-40.5,12.4-51.2s40.5-5.1,51.2,12.4s5.1,40.5-12.4,51.2S36.2,216.7,25.5,199.1z M172.2,404.1
	c-17.5,10.7-40.5,5.1-51.2-12.4c-10.7-17.5-5.1-40.5,12.4-51.2s40.5-5.1,51.2,12.4S189.8,393.4,172.2,404.1z M295.9,285.1
	c-16-26.3-7.7-60.7,18.6-76.8s60.7-7.7,76.8,18.6c16,26.3,7.7,60.7-18.6,76.8S312,311.4,295.9,285.1z M303.7,476.6
	c-8.8,5.3-20.2,2.6-25.6-6.2s-2.6-20.2,6.2-25.6c8.8-5.3,20.2-2.6,25.6,6.2S312.4,471.3,303.7,476.6z M559.8,342.3
	c-10.7-17.5-5.1-40.5,12.4-51.2s40.5-5.1,51.2,12.4s5.1,40.5-12.4,51.2S570.5,359.8,559.8,342.3z"/>
<path class="st1" d="M724.6,135.2c-30,0-54.4,24.3-54.4,54.4c0,11.2,3.4,21.7,9.2,30.3c4.2,6.3,9.7,11.6,16.1,15.7
	c8.4,5.3,18.3,8.4,29,8.4c30,0,54.4-24.3,54.4-54.4S754.6,135.2,724.6,135.2z M724.6,229.6c-22.1,0-39.9-17.9-39.9-39.9
	s17.9-39.9,39.9-39.9s39.9,17.9,39.9,39.9S746.6,229.6,724.6,229.6z"/>
</svg>
