<?xml version="1.0" encoding="utf-8"?>
<!-- Generator: Adobe Illustrator 22.0.1, SVG Export Plug-In . SVG Version: 6.00 Build 0)  -->
<svg version="1.1" id="Layer_1" xmlns="http://www.w3.org/2000/svg" xmlns:xlink="http://www.w3.org/1999/xlink" x="0px" y="0px"
	 viewBox="0 0 500 500" style="enable-background:new 0 0 500 500;" xml:space="preserve">
<style type="text/css">
	.st0{fill:#565656;}
	.st1{fill:#FFFFFF;}
</style>
<g>
	<circle class="st0" cx="250" cy="250" r="250"/>
</g>
<g>
	<circle class="st0" cx="250" cy="250" r="250"/>
</g>
<g>
	<circle class="st0" cx="250" cy="250" r="250"/>
</g>
<g>
	<circle class="st0" cx="250" cy="250" r="250"/>
</g>
<g>
	<path class="st1" d="M286.9,424.9c-0.1,0.8-0.1,1.6-0.2,2.4c3.4,3.3-0.4,12.2,8.6,11c2.6-0.4,6.7-2.9,7-4.9
		c0.5-3.2-0.9-9.3-2.6-9.8C295.8,422.5,291.2,424.3,286.9,424.9z M248.7,429.9c0.3,4.3-0.6,8.2,1,10.4c1.6,2.1,5.6,3.6,8.4,3.4
		c5.6-0.4,6.6-4.6,4-14.5C257.8,429.3,253.4,429.6,248.7,429.9z M422.8,303.9c4.8,0.5,9.4,2,13,0.8c1.8-0.6,3.8-7.7,2.5-9.2
		c-2.5-2.9-7.2-3.9-11.6-6C425.3,294.8,424.3,298.7,422.8,303.9z M268.1,429.6c2,11.9,3.6,13.9,9.8,12.3c5.5-1.4,6.6-4.4,4.3-12.2
		C281.1,426.2,276.7,426.1,268.1,429.6z M323.9,414.2c5.7,10.9,7.8,12.4,12.8,9.3c4.6-2.8,5.1-5.8,1.9-10.8
		C335.1,407.3,333.2,407.5,323.9,414.2z M416.2,321.5c4.8,1.1,9.1,3.1,12.9,2.4c1.8-0.3,4.5-7.2,3.4-8.9c-2.1-3.2-6.6-4.8-10.8-7.6
		C419.7,312.7,418.2,316.5,416.2,321.5z M56.2,252.8c0,7.7,0.1,7.9,5.8,7.9c6.4,0,8.4-1.5,8.5-6.8c0.1-4.8-3.4-8.8-8-7.9
		C59,246.6,54.5,247.8,56.2,252.8z M371.1,383.7c4.4,2.6,8,5.7,12,6.4c1.7,0.3,6.5-4.8,6.1-6.4c-1-3.8-4.3-7-7.2-11.3
		C377.8,376.6,374.9,379.6,371.1,383.7z M396.8,355.2c4.8,1.7,8.8,4.2,12.6,4.1c1.9,0,5.7-5.9,4.9-7.5c-1.6-3.6-5.5-6.1-9-9.5
		C402.3,347,400,350.4,396.8,355.2z M407.4,339c5,1.3,9.2,3.4,13,2.9c1.9-0.2,5.2-6.7,4.3-8c-2.2-3.4-6.4-5.6-10.3-8.6
		C411.9,330.4,410.1,333.8,407.4,339z M209.3,425.5c0.8,5.4,0.6,10.1,2.5,13.6c0.9,1.6,7.5,2.2,8.9,0.8c2.5-2.7,3.1-7.2,4.8-11.5
		C219.7,427.3,215.5,426.6,209.3,425.5z M356.9,394.6c8.3,9.9,10.1,10.7,14.3,7.2c4.9-4.1,4.4-6.1-4-15.3
		C363.8,389.2,360.4,391.9,356.9,394.6z M305.8,421.2c4.8,11.1,6.9,12.8,12.2,10.2c4.8-2.3,5.3-5.8,1.8-11.8
		C317.4,415.5,314.2,415.8,305.8,421.2z M426.8,285.2c5.8,0,10.6,1.1,14.2-0.5c1.6-0.7,2.6-8.1,0.9-10c-2-2.3-8.4-3.8-10.3-2.3
		C428.9,274.6,428.7,279.8,426.8,285.2z M340.3,405.6c4.8,2.3,3.4,10.5,10.2,9.1c2.8-0.6,7.3-3.9,7.1-5.7c-0.3-3.7-3.1-7.3-5.1-11.4
		C347.9,400.7,344.5,402.9,340.3,405.6z M384.7,369.9c4.6,2.3,8.3,5.1,12.2,5.5c1.8,0.2,6.2-5.3,5.6-6.9c-1.2-3.7-4.8-6.6-7.8-10.3
		C391.1,362.4,388.5,365.5,384.7,369.9z M228.1,428.8c1.4,5.2,1.5,9.8,3.8,12.9c1.1,1.5,7.7,1.5,9-0.1c2.3-2.8,2.5-7.4,3.8-12
		C238.7,429.3,234.4,429.1,228.1,428.8z M190.9,420.4c0.3,5.4-0.4,9.9,1,13.4c0.7,1.6,6.9,3.1,8.3,1.9c2.8-2.4,4.1-6.7,6.4-11
		C201,423.3,196.9,422.1,190.9,420.4z M429.5,266.5c5.9-0.5,10.9,0.4,13.9-1.6c1.8-1.2,1.6-8.1-0.2-10.7c-1.3-1.9-8.4-2.4-10-0.7
		C430.8,255.9,430.9,260.9,429.5,266.5z M80.5,312.5c-1.2-3.1-0.5-8.1-6-8.8c-3.7-0.4-9.5,3.7-8.6,6c1.3,3.4,2.9,7.7,5.6,9.1
		C74.7,320.4,80.6,315.7,80.5,312.5z M152.9,402c-3.9-2.6-7.6-5.1-11.3-7.5c-7.1,10.8-7.1,11.7-0.8,15.5
		C145.8,412.9,147.5,411.9,152.9,402z M126.1,381.7c-2.2,4.2-5.4,7.8-5.3,11.2c0.1,2.3,5.2,6.5,7.5,6.2c3.4-0.6,6.3-4.4,9.8-7.2
		c-2.9-2.6-4.8-4.4-6.8-6.1C130.1,384.7,128.8,383.7,126.1,381.7z M101.1,354.2c-9.3,8-9.6,9.4-3.7,15.1c2.9,2.8,6.6,1.8,10.7-2.9
		C110.5,363.6,107.9,359,101.1,354.2z M156.5,404.4c-1,5.1-2.9,9.3-2.1,12.9c0.4,1.9,6.4,4.7,8.2,3.8c3.1-1.5,5-5.6,7.9-9.1
		C165.5,409.2,161.8,407.2,156.5,404.4z M74.6,292.8c-1-2.8,0-8-6.1-7.9c-3.8,0-8.1,1-7.8,5.7c0.2,3.3-0.9,9,5,8.8
		C69.1,299.3,74.6,300.2,74.6,292.8z M173.4,413.4c-0.5,5-2,9.4-0.9,12.9c0.6,1.9,6.8,4,8.6,3c3-1.8,4.6-6.1,7.2-10
		C182.8,417.2,178.7,415.6,173.4,413.4z M71.2,273.5c-0.8-2.7,0.3-7.7-5.6-7.2c-3.4,0.3-8.5-0.9-8.1,4.9c0.2,3.3-1.9,8.8,4.3,9.2
		C69,281,71,279.4,71.2,273.5z M88.5,334.1c0.3-0.8,0.7-1.7,1-2.5c-2.5-3.4-4.5-7.7-7.8-9.8c-1.2-0.8-7.5,2.8-8.1,5.2
		c-0.7,2.8,1.5,8.5,3.8,9.3C80.5,337.4,84.8,335,88.5,334.1z M92.3,337.7c-0.7,0.1-1.5,0.1-2.2,0.2c-1.7,3.9-9.4,3.1-7.3,9.5
		c0.9,2.8,4,6.8,6.1,6.9c2.9,0.1,8.5-3.4,8.4-4.9C97,345.4,94.1,341.6,92.3,337.7z M431.5,246.8c4.7-0.5,9.7,0.3,12.2-1.9
		c1.7-1.5,1.5-8.8-0.3-10.2c-2.7-2-7.7-1.1-11.9-1.5C431.5,238.1,431.5,241.7,431.5,246.8z M66.5,208.3c-5.6-0.1-7.5,2.3-7.4,9.4
		c0.1,6,5.5,4.2,8.4,4.5c4.8,0.5,4.9-4.1,5.4-7.5C73.7,209,69.5,208.7,66.5,208.3z M55.8,239.4c0.6,0.7,1.2,1.5,1.8,2.2
		c3.7-0.6,8.6-0.1,10.8-2.3c1.8-1.7,1.7-7.4,0.2-10c-0.9-1.6-7.7-2.4-8.9-1C57.4,231,57,235.5,55.8,239.4z M86.5,168.8
		c6.4-4.8,8.6-9.9,3.6-16c-8.9-1.8-10.6,4.6-12.9,11C80.4,165.5,83.3,167.1,86.5,168.8z M123,379.8c-3.6-4.7-6.2-8.1-9.7-12.7
		c-3.1,5.2-6.4,8.4-6.7,11.9c-0.2,2.1,4.5,6.7,6.6,6.4C116.8,385.1,119.9,381.7,123,379.8z M67.2,181.9c5.4,1.4,9.9,4.2,12.6,2.9
		c2.6-1.2,4.2-6.5,4.3-10c0-1.3-6.5-4.8-7.9-3.9C72.8,173,70.8,177.1,67.2,181.9z M430.5,227.9c4.4-1,9.4-0.8,11.6-3.1
		c1.6-1.8,0.7-8.6-1.4-10.1c-2.5-1.8-7.4-0.4-12.2-0.4C429.2,219.3,429.8,223,430.5,227.9z M97.1,153.4c2.2-4.3,5-7.9,5.7-11.9
		c0.2-1.3-6.2-5.6-7.6-4.9c-3.5,1.9-5.9,5.9-9,9.3C90,148.5,92.8,150.4,97.1,153.4z M120.4,124c3-4,6.3-7,7.5-10.7
		c0.5-1.4-4.7-6.6-6-6.2c-3.9,1.3-7.1,4.5-10.2,6.7C114.7,117.3,117,120,120.4,124z M425,196.9c1.7,12.8,0.7,12.7,13.7,8.8
		C439,193.6,437.1,192.4,425,196.9z M74.8,205c0.9-4.8,2.5-9,2-13c-0.2-1.3-7.3-3.6-8.7-2.4c-2.8,2.5-4,6.9-6.1,11.1
		C66.5,202.2,69.8,203.3,74.8,205z M134.1,110.8c3.1-3.1,6.9-5.6,8.6-9.1c0.7-1.4-3.7-7.4-4.8-7.1c-4.2,1-7.9,3.7-12.4,6
		C128.7,104.5,131,107.2,134.1,110.8z M97.5,129.3c4,3.2,6.7,5.4,10.3,8.4c2.6-3.7,5.9-6.8,6.9-10.6c0.4-1.4-5.3-6.5-6.9-6
		C104.3,122.4,101.4,126.1,97.5,129.3z M141.5,88.9c2.9,4.1,4.9,6.9,7.7,10.8c3.5-3.1,7.4-5.3,9.4-8.6c0.7-1.3-3.3-7.5-4.5-7.3
		C149.9,84.3,146,86.8,141.5,88.9z M422.1,190.5c4-1.9,9-2.7,10.3-5.4c1.1-2.3-1.4-8.9-3.6-9.5c-3.1-0.9-7.3,1.8-11.3,3.1
		C419.2,182.8,420.5,186.2,422.1,190.5z M165.3,90.3c3.9-3.1,7.8-5.1,9.8-8.3c0.8-1.3-2.8-7.6-3.9-7.5c-4.1,0.5-7.9,2.7-12.1,4.4
		C161.3,82.9,162.9,85.8,165.3,90.3z M177.1,70.9c1.9,3.6,3,8.5,5.1,8.9c3.1,0.7,7.5-1,10.1-3.2c1.2-1-0.1-6-1.5-8.4
		c-0.6-1-4.5-0.5-6.7-0.1C181.8,68.6,179.8,69.8,177.1,70.9z M217.3,71.5c5.1-1.5,9.4-1.8,12.2-4c1.3-1,0.2-8.1-0.9-8.4
		c-3.5-1-8.2-1.1-11.1,0.6C216,60.6,217.3,66.1,217.3,71.5z M426.1,167.5c-2-3.9-3.9-7.4-5.8-11.2c-3.9,2.1-7.1,3.9-10.7,5.8
		c1.8,3.5,3.5,6.8,5.4,10.4C418.7,170.8,422.1,169.3,426.1,167.5z M200,75.7c4.2-1.7,8.5-2.5,11.1-5c1.2-1.2-0.6-8.3-1.6-8.4
		c-4.1-0.5-8.4,0.6-13,1.2C197.7,67.7,198.6,70.9,200,75.7z M406.3,155.9c3.7-2.4,6.8-4.5,10.3-6.8c-2.8-3.9-5-7-7.3-10.2
		c-3.7,2.7-6.5,4.9-9.5,7.1C402,149.4,403.9,152.3,406.3,155.9z M255.6,68.4c4-0.3,8.3,0.3,11.5-1.2c1.4-0.7,1.8-7.9,0.8-8.5
		c-3.5-1.8-7.8-1.9-12.3-2.7C255.6,60.7,255.6,64,255.6,68.4z M344.8,80.6c-4.4-2.1-8-3.8-11.6-5.5c-1.7,3.7-3.1,6.7-4.7,10.2
		c3.3,1.8,6.7,3.6,10.4,5.6C341,87.5,342.7,84.4,344.8,80.6z M395.5,140c3.2-2.4,6.1-4.7,9.6-7.3c-2.9-3.4-5.5-6.5-8.1-9.5
		c-3.3,2.9-5.9,5.2-8.9,7.8C390.5,134,392.9,136.8,395.5,140z M360.7,105.1c3,2.5,5.9,4.8,9.1,7.4c2.6-2.9,5-5.7,7.9-8.9
		c-3.7-2.8-7-5.3-10.2-7.8C365.1,99.1,363.2,101.7,360.7,105.1z M304.3,76c1.4-3.9,2.5-7.1,3.8-11c-4.7-1.2-8.7-2.2-12.8-3.2
		c-0.8,4.2-1.4,7.4-2.1,11C296.8,73.8,300.1,74.8,304.3,76z M383.5,108.1c-3.6,3.9-5.9,6.5-8,8.8c2.7,2.9,5.1,5.6,7.9,8.6
		c2.9-2.7,5.6-5.2,8.3-7.7C388.7,114.3,386.2,111.3,383.5,108.1z M345.2,94.4c3.4,2.2,6.5,4.2,9.8,6.4c2.4-3.4,4.4-6.2,6.8-9.7
		c-3.9-2.4-7.4-4.6-10.9-6.8C348.7,88.2,347.1,91,345.2,94.4z M286,71.5c1-3.9,1.8-7.3,2.8-11.4c-4.9-0.7-8.9-1.2-13-1.8
		c-0.5,4-0.9,7.3-1.4,11.1C278,70,281.4,70.6,286,71.5z M236.8,68.9c4.4-1,8.6-1,11.7-3c1.2-0.8,0.8-7.7-0.2-8.1
		c-3.7-1.3-8-1-12.5-1.4C236.2,61,236.4,64.1,236.8,68.9z M311.1,78.2c3.7,1.5,7.1,2.9,10.8,4.4c1.6-3.7,3-6.9,4.7-10.7
		c-4.4-1.6-8.3-3-12.1-4.4C313.3,71.4,312.3,74.3,311.1,78.2z"/>
	<path class="st1" d="M286.9,424.9c4.3-0.6,8.9-2.4,12.7-1.3c1.8,0.5,3.2,6.6,2.6,9.8c-0.3,2-4.4,4.5-7,4.9c-8.9,1.3-5.1-7.7-8.6-11
		C286.8,426.5,286.9,425.7,286.9,424.9z"/>
	<path class="st1" d="M248.7,429.9c4.8-0.3,9.1-0.5,13.4-0.8c2.7,9.9,1.6,14.1-4,14.5c-2.8,0.2-6.9-1.3-8.4-3.4
		C248.1,438.1,249,434.2,248.7,429.9z"/>
	<path class="st1" d="M422.8,303.9c1.4-5.2,2.5-9.1,3.9-14.4c4.5,2.1,9.1,3.1,11.6,6c1.3,1.4-0.7,8.6-2.5,9.2
		C432.2,305.9,427.7,304.4,422.8,303.9z"/>
	<path class="st1" d="M268.1,429.6c8.5-3.5,12.9-3.4,14,0.2c2.4,7.7,1.3,10.8-4.3,12.2C271.8,443.5,270.2,441.5,268.1,429.6z"/>
	<path class="st1" d="M323.9,414.2c9.3-6.7,11.1-6.9,14.6-1.5c3.2,5,2.7,8-1.9,10.8C331.7,426.6,329.6,425.1,323.9,414.2z"/>
	<path class="st1" d="M416.2,321.5c2-5,3.5-8.8,5.5-14.1c4.2,2.7,8.8,4.3,10.8,7.6c1.1,1.7-1.7,8.6-3.4,8.9
		C425.3,324.6,421,322.6,416.2,321.5z"/>
	<path class="st1" d="M56.2,252.8c-1.6-5,2.9-6.2,6.2-6.9c4.7-0.9,8.1,3.1,8,7.9c-0.1,5.3-2,6.9-8.5,6.8
		C56.3,260.7,56.1,260.5,56.2,252.8z"/>
	<path class="st1" d="M371.1,383.7c3.9-4,6.8-7,10.8-11.2c2.9,4.2,6.2,7.4,7.2,11.3c0.4,1.6-4.4,6.7-6.1,6.4
		C379,389.3,375.5,386.2,371.1,383.7z"/>
	<path class="st1" d="M396.8,355.2c3.3-4.9,5.5-8.3,8.6-12.9c3.5,3.4,7.3,5.9,9,9.5c0.7,1.6-3.1,7.4-4.9,7.5
		C405.6,359.4,401.6,357,396.8,355.2z"/>
	<path class="st1" d="M407.4,339c2.7-5.2,4.5-8.6,7.1-13.6c3.8,3,8,5.1,10.3,8.6c0.9,1.3-2.4,7.7-4.3,8
		C416.6,342.4,412.5,340.3,407.4,339z"/>
	<path class="st1" d="M209.3,425.5c6.2,1.1,10.4,1.8,16.1,2.8c-1.6,4.4-2.2,8.9-4.8,11.5c-1.4,1.5-8,0.8-8.9-0.8
		C209.9,435.6,210.2,431,209.3,425.5z"/>
	<path class="st1" d="M356.9,394.6c3.5-2.7,6.9-5.4,10.4-8.1c8.4,9.2,8.8,11.2,4,15.3C366.9,405.3,365.2,404.5,356.9,394.6z"/>
	<path class="st1" d="M305.8,421.2c8.4-5.4,11.6-5.7,14-1.6c3.5,6,2.9,9.5-1.8,11.8C312.7,434,310.6,432.3,305.8,421.2z"/>
	<path class="st1" d="M426.8,285.2c1.9-5.5,2.1-10.6,4.8-12.7c1.9-1.5,8.3,0,10.3,2.3c1.6,1.9,0.7,9.2-0.9,10
		C437.4,286.3,432.6,285.2,426.8,285.2z"/>
	<path class="st1" d="M340.3,405.6c4.2-2.7,7.6-4.9,12.2-8c2,4.1,4.9,7.7,5.1,11.4c0.1,1.8-4.3,5.1-7.1,5.7
		C343.7,416.1,345.1,408,340.3,405.6z"/>
	<path class="st1" d="M384.7,369.9c3.8-4.4,6.4-7.5,10-11.8c3,3.7,6.6,6.6,7.8,10.3c0.6,1.6-3.8,7.1-5.6,6.9
		C393,375.1,389.3,372.2,384.7,369.9z"/>
	<path class="st1" d="M228.1,428.8c6.3,0.3,10.5,0.6,16.5,0.9c-1.3,4.6-1.5,9.2-3.8,12c-1.3,1.6-7.8,1.6-9,0.1
		C229.7,438.6,229.5,434,228.1,428.8z"/>
	<path class="st1" d="M190.9,420.4c6,1.7,10.1,2.8,15.8,4.4c-2.3,4.3-3.6,8.5-6.4,11c-1.4,1.2-7.6-0.3-8.3-1.9
		C190.4,430.3,191.1,425.9,190.9,420.4z"/>
	<path class="st1" d="M429.5,266.5c1.4-5.6,1.3-10.6,3.7-13.1c1.6-1.7,8.7-1.1,10,0.7c1.8,2.6,2,9.5,0.2,10.7
		C440.5,266.9,435.4,266,429.5,266.5z"/>
	<path class="st1" d="M80.5,312.5c0.1,3.2-5.9,7.9-9,6.3c-2.7-1.4-4.4-5.7-5.6-9.1c-0.9-2.3,4.9-6.4,8.6-6
		C80,304.4,79.4,309.4,80.5,312.5z"/>
	<path class="st1" d="M152.9,402c-5.3,9.9-7.1,11-12.1,8c-6.3-3.8-6.3-4.7,0.8-15.5C145.3,396.9,148.9,399.4,152.9,402z"/>
	<path class="st1" d="M126.1,381.7c2.6,2,4,3,5.3,4.1c2,1.7,3.9,3.5,6.8,6.1c-3.5,2.8-6.4,6.6-9.8,7.2c-2.3,0.4-7.4-3.9-7.5-6.2
		C120.8,389.5,124,385.9,126.1,381.7z"/>
	<path class="st1" d="M101.1,354.2c6.8,4.9,9.4,9.5,7,12.2c-4,4.6-7.8,5.6-10.7,2.9C91.4,363.6,91.8,362.2,101.1,354.2z"/>
	<path class="st1" d="M156.5,404.4c5.3,2.8,9,4.8,14.1,7.5c-2.8,3.5-4.7,7.6-7.9,9.1c-1.9,0.9-7.8-1.8-8.2-3.8
		C153.6,413.7,155.5,409.5,156.5,404.4z"/>
	<path class="st1" d="M74.6,292.8c0,7.4-5.5,6.5-8.9,6.6c-5.9,0.2-4.8-5.5-5-8.8c-0.3-4.8,4-5.7,7.8-5.7
		C74.6,284.8,73.6,290,74.6,292.8z"/>
	<path class="st1" d="M173.4,413.4c5.4,2.1,9.4,3.8,14.9,5.9c-2.6,3.9-4.1,8.2-7.2,10c-1.8,1.1-8-1.1-8.6-3
		C171.4,422.8,172.8,418.4,173.4,413.4z"/>
	<path class="st1" d="M71.2,273.5c-0.2,5.9-2.2,7.5-9.4,7c-6.2-0.4-4.1-5.9-4.3-9.2c-0.4-5.8,4.8-4.6,8.1-4.9
		C71.5,265.8,70.3,270.7,71.2,273.5z"/>
	<path class="st1" d="M88.5,334.1c-3.7,0.9-8,3.3-11.1,2.2c-2.3-0.8-4.6-6.6-3.8-9.3c0.6-2.5,6.9-6,8.1-5.2c3.3,2.2,5.3,6.4,7.8,9.8
		C89.2,332.4,88.9,333.2,88.5,334.1z"/>
	<path class="st1" d="M92.3,337.7c1.8,3.9,4.7,7.6,5,11.6c0.1,1.6-5.5,5-8.4,4.9c-2.2,0-5.2-4.1-6.1-6.9c-2.1-6.4,5.6-5.6,7.3-9.5
		C90.8,337.8,91.5,337.8,92.3,337.7z"/>
	<path class="st1" d="M431.5,246.8c0-5,0-8.7,0-13.5c4.2,0.4,9.2-0.5,11.9,1.5c1.8,1.4,2.1,8.7,0.3,10.2
		C441.2,247,436.2,246.2,431.5,246.8z"/>
	<path class="st1" d="M66.5,208.3c3,0.4,7.2,0.7,6.4,6.5c-0.4,3.4-0.6,7.9-5.4,7.5c-3-0.3-8.4,1.5-8.4-4.5
		C59,210.6,60.9,208.2,66.5,208.3z"/>
	<path class="st1" d="M55.8,239.4c1.2-3.8,1.6-8.3,4-11.1c1.2-1.4,8-0.6,8.9,1c1.5,2.7,1.6,8.3-0.2,10c-2.3,2.2-7.1,1.6-10.8,2.3
		C57,240.8,56.4,240.1,55.8,239.4z"/>
	<path class="st1" d="M86.5,168.8c-3.2-1.7-6.1-3.3-9.3-5c2.3-6.4,4-12.8,12.9-11C95.1,158.8,92.9,164,86.5,168.8z"/>
	<path class="st1" d="M123,379.8c-3.1,2-6.3,5.3-9.7,5.7c-2.1,0.2-6.8-4.3-6.6-6.4c0.3-3.5,3.6-6.8,6.7-11.9
		C116.9,371.7,119.4,375.1,123,379.8z"/>
	<path class="st1" d="M67.2,181.9c3.7-4.7,5.7-8.9,9-11c1.4-0.9,7.9,2.6,7.9,3.9c-0.1,3.6-1.7,8.8-4.3,10
		C77.1,186.1,72.6,183.3,67.2,181.9z"/>
	<path class="st1" d="M430.5,227.9c-0.7-4.9-1.2-8.6-1.9-13.7c4.8,0,9.6-1.4,12.2,0.4c2,1.5,2.9,8.4,1.4,10.1
		C439.9,227.1,434.9,226.9,430.5,227.9z"/>
	<path class="st1" d="M97.1,153.4c-4.3-3-7.1-4.8-10.9-7.5c3.1-3.4,5.5-7.4,9-9.3c1.4-0.8,7.8,3.6,7.6,4.9
		C102.1,145.5,99.3,149.1,97.1,153.4z"/>
	<path class="st1" d="M120.4,124c-3.4-4-5.7-6.7-8.7-10.2c3.1-2.2,6.3-5.4,10.2-6.7c1.3-0.4,6.5,4.8,6,6.2
		C126.7,117,123.4,120.1,120.4,124z"/>
	<path class="st1" d="M425,196.9c12.1-4.5,14-3.2,13.7,8.8C425.7,209.5,426.7,209.6,425,196.9z"/>
	<path class="st1" d="M74.8,205c-4.9-1.7-8.2-2.8-12.7-4.3c2.1-4.2,3.2-8.6,6.1-11.1c1.4-1.2,8.5,1.1,8.7,2.4
		C77.3,196,75.7,200.2,74.8,205z"/>
	<path class="st1" d="M134.1,110.8c-3.1-3.7-5.4-6.3-8.6-10.1c4.4-2.3,8.2-5,12.4-6c1.1-0.3,5.5,5.7,4.8,7.1
		C140.9,105.2,137.2,107.7,134.1,110.8z"/>
	<path class="st1" d="M97.5,129.3c3.9-3.3,6.8-6.9,10.4-8.1c1.6-0.5,7.2,4.6,6.9,6c-1,3.7-4.3,6.9-6.9,10.6
		C104.2,134.8,101.5,132.6,97.5,129.3z"/>
	<path class="st1" d="M141.5,88.9c4.6-2.1,8.4-4.5,12.5-5.2c1.2-0.2,5.2,6.1,4.5,7.3c-2,3.3-5.8,5.6-9.4,8.6
		C146.4,95.8,144.4,93,141.5,88.9z"/>
	<path class="st1" d="M422.1,190.5c-1.6-4.3-3-7.7-4.6-11.9c4-1.3,8.2-4,11.3-3.1c2.1,0.6,4.7,7.3,3.6,9.5
		C431.2,187.8,426.1,188.6,422.1,190.5z"/>
	<path class="st1" d="M165.3,90.3c-2.4-4.5-4-7.4-6.2-11.4c4.2-1.7,8-3.9,12.1-4.4c1.1-0.1,4.7,6.2,3.9,7.5
		C173.1,85.2,169.2,87.2,165.3,90.3z"/>
	<path class="st1" d="M177.1,70.9c2.7-1.1,4.7-2.3,6.8-2.7c2.3-0.4,6.2-1,6.7,0.1c1.4,2.5,2.7,7.4,1.5,8.4c-2.5,2.2-7,3.9-10.1,3.2
		C180,79.4,178.9,74.5,177.1,70.9z"/>
	<path class="st1" d="M217.3,71.5c0-5.4-1.3-10.9,0.3-11.8c2.9-1.8,7.6-1.6,11.1-0.6c1.1,0.3,2.1,7.4,0.9,8.4
		C226.7,69.7,222.3,70,217.3,71.5z"/>
	<path class="st1" d="M426.1,167.5c-4,1.8-7.4,3.3-11.1,5c-1.9-3.7-3.6-6.9-5.4-10.4c3.5-1.9,6.7-3.6,10.7-5.8
		C422.2,160,424,163.5,426.1,167.5z"/>
	<path class="st1" d="M200,75.7c-1.4-4.8-2.3-7.9-3.5-12.2c4.6-0.6,8.9-1.7,13-1.2c1,0.1,2.8,7.2,1.6,8.4
		C208.5,73.2,204.2,74,200,75.7z"/>
	<path class="st1" d="M406.3,155.9c-2.4-3.6-4.3-6.5-6.5-9.9c3-2.2,5.8-4.4,9.5-7.1c2.3,3.2,4.5,6.3,7.3,10.2
		C413.1,151.4,410,153.5,406.3,155.9z"/>
	<path class="st1" d="M255.6,68.4c0-4.4,0-7.7,0-12.4c4.5,0.8,8.9,0.9,12.3,2.7c1.1,0.5,0.6,7.8-0.8,8.5
		C263.9,68.7,259.6,68.1,255.6,68.4z"/>
	<path class="st1" d="M344.8,80.6c-2.2,3.8-3.9,6.9-5.9,10.4c-3.7-2-7.1-3.8-10.4-5.6c1.6-3.5,3-6.5,4.7-10.2
		C336.9,76.8,340.5,78.5,344.8,80.6z"/>
	<path class="st1" d="M395.5,140c-2.6-3.2-5-6-7.4-9c3-2.6,5.6-4.9,8.9-7.8c2.6,3,5.2,6,8.1,9.5C401.6,135.3,398.7,137.5,395.5,140z
		"/>
	<path class="st1" d="M360.7,105.1c2.4-3.3,4.4-6,6.9-9.3c3.2,2.5,6.5,4.9,10.2,7.8c-2.9,3.3-5.3,6-7.9,8.9
		C366.6,109.8,363.8,107.5,360.7,105.1z"/>
	<path class="st1" d="M304.3,76c-4.2-1.2-7.5-2.2-11.1-3.3c0.7-3.6,1.3-6.8,2.1-11c4.2,1,8.1,2,12.8,3.2
		C306.8,68.9,305.6,72.1,304.3,76z"/>
	<path class="st1" d="M383.5,108.1c2.7,3.2,5.3,6.2,8.2,9.6c-2.7,2.5-5.4,5-8.3,7.7c-2.7-3-5.2-5.7-7.9-8.6
		C377.6,114.6,379.9,112.1,383.5,108.1z"/>
	<path class="st1" d="M345.2,94.4c1.9-3.4,3.5-6.3,5.7-10.1c3.5,2.2,7,4.4,10.9,6.8c-2.4,3.4-4.4,6.3-6.8,9.7
		C351.6,98.7,348.5,96.6,345.2,94.4z"/>
	<path class="st1" d="M286,71.5c-4.6-0.8-8-1.5-11.6-2.1c0.5-3.8,0.9-7,1.4-11.1c4.1,0.6,8.1,1.1,13,1.8
		C287.8,64.1,286.9,67.6,286,71.5z"/>
	<path class="st1" d="M236.8,68.9c-0.4-4.8-0.7-8-1-12.4c4.5,0.4,8.8,0.1,12.5,1.4c1,0.4,1.5,7.3,0.2,8.1
		C245.4,67.9,241.2,68,236.8,68.9z"/>
	<path class="st1" d="M311.1,78.2c1.2-3.8,2.2-6.8,3.4-10.8c3.8,1.4,7.7,2.8,12.1,4.4c-1.7,3.8-3.1,7-4.7,10.7
		C318.2,81,314.8,79.7,311.1,78.2z"/>
</g>
</svg>
