<?xml version="1.0" encoding="utf-8"?>
<!-- Generator: Adobe Illustrator 22.0.1, SVG Export Plug-In . SVG Version: 6.00 Build 0)  -->
<svg version="1.1" id="Layer_1" xmlns="http://www.w3.org/2000/svg" xmlns:xlink="http://www.w3.org/1999/xlink" x="0px" y="0px"
	 viewBox="0 0 500 500" style="enable-background:new 0 0 500 500;" xml:space="preserve">
<style type="text/css">
	.st0{fill:#565656;}
	.st1{fill:none;stroke:#FFFFFF;stroke-width:9;stroke-linecap:round;stroke-miterlimit:10;}
	.st2{fill:#FFFFFF;}
	.st3{fill:none;stroke:#FFFFFF;stroke-width:9;stroke-miterlimit:10;}
</style>
<g>
	<circle class="st0" cx="250" cy="250" r="250"/>
</g>
<g>
	<circle class="st0" cx="250" cy="250" r="250"/>
</g>
<g>
	<circle class="st0" cx="250" cy="250" r="250"/>
</g>
<g>
	<circle class="st0" cx="250" cy="250" r="250"/>
</g>
<g>
	<circle class="st0" cx="250" cy="250" r="250"/>
</g>
<g>
	<circle class="st0" cx="250" cy="249" r="250"/>
</g>
<g>
	<circle class="st0" cx="250" cy="250" r="250"/>
</g>
<path class="st1" d="M148,256.5c74,33.8,349.1-34.4,356,31.3"/>
<path class="st2" d="M96,148c-53,0-96,43-96,96s43,96,96,96s96-43,96-96S149,148,96,148z M94.7,314.1c-38.1,0-69.1-30.9-69.1-69.1
	s30.9-69.1,69.1-69.1s69.1,30.9,69.1,69.1S132.8,314.1,94.7,314.1z"/>
<path class="st3" d="M172.9,228.8c95.4-51.1,206.6-12.6,337.1-14.8"/>
<circle class="st2" cx="148" cy="256.5" r="5"/>
</svg>
